<?xml version="1.0" encoding="UTF-8" standalone="no"?>
<!DOCTYPE svg PUBLIC "-//W3C//DTD SVG 1.1//EN"
 "http://www.w3.org/Graphics/SVG/1.1/DTD/svg11.dtd">
<!-- Generated by graphviz version 2.38.0 (20140413.2041)
 -->
<!-- Title: %3 Pages: 1 -->
<svg width="279pt" height="263pt"
 viewBox="0.00 0.00 279.25 262.69" xmlns="http://www.w3.org/2000/svg" xmlns:xlink="http://www.w3.org/1999/xlink">
<g id="graph0" class="graph" transform="scale(1 1) rotate(0) translate(4 258.693)">
<title>%3</title>
<polygon fill="white" stroke="none" points="-4,4 -4,-258.693 275.248,-258.693 275.248,4 -4,4"/>
<!-- In0 -->
<g id="node1" class="node"><title>In0</title>
<polygon fill="lightgray" stroke="black" points="84.7132,-254.693 55.7132,-254.693 55.7132,-236.693 84.7132,-236.693 84.7132,-254.693"/>
<text text-anchor="middle" x="70.2132" y="-243.493" font-family="Times,serif" font-size="9.00">In0</text>
</g>
<!-- act2 -->
<g id="node6" class="node"><title>act2</title>
<ellipse fill="lightblue" stroke="black" cx="214.213" cy="-21.9203" rx="21.8409" ry="21.8409"/>
<text text-anchor="middle" x="214.213" y="-19.7203" font-family="Times,serif" font-size="9.00">act2</text>
</g>
<!-- In0&#45;&gt;act2 -->
<g id="edge6" class="edge"><title>In0&#45;&gt;act2</title>
<path fill="none" stroke="green" stroke-width="0.120661" d="M85.1634,-245.413C117.752,-246.122 195.671,-243.003 238.213,-200.693 276.868,-162.25 277.11,-131.336 259.213,-79.8406 254.755,-67.012 246.07,-54.8932 237.51,-45.1618"/>
<polygon fill="green" stroke="green" stroke-width="0.120661" points="239.824,-42.5116 230.444,-37.5857 234.705,-47.286 239.824,-42.5116"/>
</g>
<!-- 185 -->
<g id="node7" class="node"><title>185</title>
<ellipse fill="white" stroke="black" cx="21.2132" cy="-101.054" rx="21.4286" ry="21.4286"/>
<text text-anchor="middle" x="21.2132" y="-98.8538" font-family="Times,serif" font-size="9.00">185</text>
</g>
<!-- In0&#45;&gt;185 -->
<g id="edge13" class="edge"><title>In0&#45;&gt;185</title>
<path fill="none" stroke="red" stroke-width="0.160721" stroke-dasharray="1,5" d="M63.1188,-236.533C56.1946,-228.124 45.8968,-214.351 40.2132,-200.693 31.1256,-178.856 26.3342,-152.472 23.8375,-132.487"/>
<polygon fill="red" stroke="red" stroke-width="0.160721" points="27.2983,-131.942 22.702,-122.396 20.3421,-132.724 27.2983,-131.942"/>
</g>
<!-- 369 -->
<g id="node9" class="node"><title>369</title>
<ellipse fill="white" stroke="black" cx="70.2132" cy="-179.48" rx="21.4286" ry="21.4286"/>
<text text-anchor="middle" x="70.2132" y="-177.28" font-family="Times,serif" font-size="9.00">369</text>
</g>
<!-- In0&#45;&gt;369 -->
<g id="edge4" class="edge"><title>In0&#45;&gt;369</title>
<path fill="none" stroke="green" stroke-width="0.263055" d="M70.2132,-236.561C70.2132,-230.018 70.2132,-220.389 70.2132,-210.949"/>
<polygon fill="green" stroke="green" stroke-width="0.263055" points="73.7133,-210.936 70.2132,-200.936 66.7133,-210.936 73.7133,-210.936"/>
</g>
<!-- In1 -->
<g id="node2" class="node"><title>In1</title>
<polygon fill="lightgray" stroke="black" points="174.713,-110.054 145.713,-110.054 145.713,-92.0538 174.713,-92.0538 174.713,-110.054"/>
<text text-anchor="middle" x="160.213" y="-98.8538" font-family="Times,serif" font-size="9.00">In1</text>
</g>
<!-- act1 -->
<g id="node5" class="node"><title>act1</title>
<ellipse fill="lightblue" stroke="black" cx="91.2132" cy="-21.9203" rx="21.8409" ry="21.8409"/>
<text text-anchor="middle" x="91.2132" y="-19.7203" font-family="Times,serif" font-size="9.00">act1</text>
</g>
<!-- In1&#45;&gt;act1 -->
<g id="edge3" class="edge"><title>In1&#45;&gt;act1</title>
<path fill="none" stroke="red" stroke-width="0.27639" d="M152.829,-91.7992C143.237,-81.0764 126.09,-61.9084 112.316,-46.5108"/>
<polygon fill="red" stroke="red" stroke-width="0.27639" points="114.754,-43.9869 105.479,-38.8673 109.537,-48.654 114.754,-43.9869"/>
</g>
<!-- In1&#45;&gt;act2 -->
<g id="edge2" class="edge"><title>In1&#45;&gt;act2</title>
<path fill="none" stroke="green" stroke-width="0.495011" d="M165.992,-91.7992C173.134,-81.598 185.627,-63.7533 196.107,-48.7833"/>
<polygon fill="green" stroke="green" stroke-width="0.495011" points="199.121,-50.5802 201.989,-40.3809 193.387,-46.5656 199.121,-50.5802"/>
</g>
<!-- In3 -->
<g id="node3" class="node"><title>In3</title>
<polygon fill="lightgray" stroke="black" points="127.713,-110.054 98.7132,-110.054 98.7132,-92.0538 127.713,-92.0538 127.713,-110.054"/>
<text text-anchor="middle" x="113.213" y="-98.8538" font-family="Times,serif" font-size="9.00">In3</text>
</g>
<!-- In3&#45;&gt;act1 -->
<g id="edge7" class="edge"><title>In3&#45;&gt;act1</title>
<path fill="none" stroke="red" stroke-width="0.213939" d="M110.859,-91.7992C108.219,-82.5423 103.783,-66.9914 99.7942,-53.006"/>
<polygon fill="red" stroke="red" stroke-width="0.213939" points="103.109,-51.8679 97.0006,-43.2114 96.3777,-53.788 103.109,-51.8679"/>
</g>
<!-- In3&#45;&gt;act2 -->
<g id="edge8" class="edge"><title>In3&#45;&gt;act2</title>
<path fill="none" stroke="green" stroke-width="0.226026" d="M122.009,-91.9905C126.228,-88.2092 131.402,-83.6974 136.213,-79.8406 153.052,-66.3428 172.68,-52.0264 188.034,-41.128"/>
<polygon fill="green" stroke="green" stroke-width="0.226026" points="190.372,-43.762 196.526,-35.1382 186.337,-38.0417 190.372,-43.762"/>
</g>
<!-- In4 -->
<g id="node4" class="node"><title>In4</title>
<polygon fill="lightgray" stroke="black" points="228.713,-188.48 199.713,-188.48 199.713,-170.48 228.713,-170.48 228.713,-188.48"/>
<text text-anchor="middle" x="214.213" y="-177.28" font-family="Times,serif" font-size="9.00">In4</text>
</g>
<!-- In4&#45;&gt;act1 -->
<g id="edge12" class="edge"><title>In4&#45;&gt;act1</title>
<path fill="none" stroke="red" stroke-width="0.418198" d="M199.334,-176.89C171.931,-173.068 114.024,-160.629 89.2132,-122.267 76.0693,-101.944 77.9327,-74.0586 82.302,-53.0034"/>
<polygon fill="red" stroke="red" stroke-width="0.418198" points="85.7756,-53.5229 84.6709,-42.9859 78.9635,-51.912 85.7756,-53.5229"/>
</g>
<!-- In4&#45;&gt;act2 -->
<g id="edge10" class="edge"><title>In4&#45;&gt;act2</title>
<path fill="none" stroke="green" stroke-width="0.620066" d="M220.292,-170.257C227.641,-159.756 239.596,-140.725 244.213,-122.267 248.789,-103.974 248.742,-98.145 244.213,-79.8406 241.598,-69.2681 236.623,-58.4924 231.465,-49.2018"/>
<polygon fill="green" stroke="green" stroke-width="0.620066" points="234.415,-47.3129 226.327,-40.4688 228.381,-50.8626 234.415,-47.3129"/>
</g>
<!-- 320 -->
<g id="node8" class="node"><title>320</title>
<ellipse fill="white" stroke="black" cx="214.213" cy="-101.054" rx="21.4286" ry="21.4286"/>
<text text-anchor="middle" x="214.213" y="-98.8538" font-family="Times,serif" font-size="9.00">320</text>
</g>
<!-- In4&#45;&gt;320 -->
<g id="edge5" class="edge"><title>In4&#45;&gt;320</title>
<path fill="none" stroke="green" stroke-width="0.404894" d="M214.213,-170.301C214.213,-161.28 214.213,-146.225 214.213,-132.547"/>
<polygon fill="green" stroke="green" stroke-width="0.404894" points="217.713,-132.478 214.213,-122.478 210.713,-132.478 217.713,-132.478"/>
</g>
<!-- 185&#45;&gt;act1 -->
<g id="edge9" class="edge"><title>185&#45;&gt;act1</title>
<path fill="none" stroke="red" stroke-width="0.250216" d="M35.043,-84.8147C45.0737,-73.7618 58.8204,-58.6142 70.2037,-46.0709"/>
<polygon fill="red" stroke="red" stroke-width="0.250216" points="72.8031,-48.4147 76.9316,-38.6573 67.6194,-43.7104 72.8031,-48.4147"/>
</g>
<!-- 320&#45;&gt;act2 -->
<g id="edge1" class="edge"><title>320&#45;&gt;act2</title>
<path fill="none" stroke="green" stroke-width="0.580851" d="M214.213,-79.7879C214.213,-71.9181 214.213,-62.7248 214.213,-54.0528"/>
<polygon fill="green" stroke="green" stroke-width="0.580851" points="217.713,-53.8573 214.213,-43.8573 210.713,-53.8574 217.713,-53.8573"/>
</g>
<!-- 369&#45;&gt;185 -->
<g id="edge11" class="edge"><title>369&#45;&gt;185</title>
<path fill="none" stroke="red" stroke-width="0.112155" d="M59.0943,-161.138C52.8294,-151.366 44.8805,-138.968 37.8836,-128.055"/>
<polygon fill="red" stroke="red" stroke-width="0.112155" points="40.6319,-125.857 32.2881,-119.328 34.739,-129.635 40.6319,-125.857"/>
</g>
</g>
</svg>
